<svg width="718" height="737" viewBox="0 0 718 737" fill="none" xmlns="http://www.w3.org/2000/svg">
<path d="M131 355H160.664C165.082 355 168.664 351.418 168.664 347V191C168.664 186.582 172.245 183 176.664 183H207" stroke="#3BA3F0" stroke-linecap="round" stroke-linejoin="round"/>
<path d="M125 399H158.133C162.551 399 166.133 402.582 166.133 407V671C166.133 675.418 169.714 679 174.133 679H208" stroke="#3BA3F0" stroke-linecap="round" stroke-linejoin="round"/>
<path d="M132 376H176.035C180.454 376 184.035 379.582 184.035 384V487C184.035 491.418 187.617 495 192.035 495H207" stroke="#3BA3F0" stroke-linecap="round" stroke-linejoin="round"/>
<path d="M324 182.741C328.3 182.741 338.512 173.199 338.512 120.714V9.40809C338.512 4.99895 342.034 1.42128 346.444 1.40911C397.099 1.26938 674.574 0.549847 717 1.43159" stroke="#3BA3F0" stroke-linejoin="round"/>
<path d="M324 182.741C328.3 182.741 338.512 192.468 338.512 245.969V359.584C338.512 363.993 342.034 367.57 346.443 367.583C397.097 367.725 674.574 368.459 717 367.56" stroke="#3BA3F0" stroke-linejoin="round"/>
<path d="M325 495C329.289 495 339.475 489.119 339.475 456.775V391.251C339.475 386.839 343.008 383.26 347.42 383.252C398.037 383.166 674.691 382.723 717 383.266" stroke="#3BA3F0" stroke-linejoin="round"/>
<path d="M325 495C329.289 495 339.475 500.881 339.475 533.225V598.749C339.475 603.161 343.008 606.74 347.42 606.748C398.037 606.834 674.691 607.277 717 606.734" stroke="#3BA3F0" stroke-linejoin="round"/>
<path d="M325 679C329.289 679 339.475 676.007 339.475 659.546V630.128C339.475 625.713 343.013 622.132 347.429 622.128C398.067 622.084 674.693 621.859 717 622.135" stroke="#3BA3F0" stroke-linejoin="round"/>
<path d="M325 679C329.289 679 339.475 681.993 339.475 698.454V727.872C339.475 732.287 343.013 735.868 347.429 735.872C398.067 735.916 674.693 736.141 717 735.865" stroke="#3BA3F0" stroke-linejoin="round"/>
<path d="M0.950284 364.897V362.909H11.3949V364.897H7.34872V376H4.99645V364.897H0.950284ZM14.5174 372.868L18.4485 366.182H20.8264V376H18.5891V369.308L14.6708 376H12.2866V366.182H14.5174V372.868ZM23.2026 376V366.182H31.4931V376H29.2623V368.08H25.4142V376H23.2026ZM38.3374 376V366.182H46.6278V376H44.397V368.08H40.549V376H38.3374ZM49.0073 379.682V366.182H51.2828V367.805H51.4171C51.5364 367.567 51.7047 367.313 51.9221 367.045C52.1394 366.772 52.4334 366.54 52.8042 366.348C53.1749 366.152 53.6479 366.054 54.2232 366.054C54.9817 366.054 55.6657 366.248 56.275 366.636C56.8887 367.019 57.3745 367.588 57.7324 368.342C58.0946 369.092 58.2757 370.013 58.2757 371.104C58.2757 372.182 58.0989 373.098 57.7452 373.852C57.3915 374.607 56.91 375.182 56.3006 375.578C55.6912 375.974 55.0009 376.173 54.2296 376.173C53.6671 376.173 53.2005 376.079 52.8297 375.891C52.459 375.704 52.1607 375.478 51.9348 375.214C51.7132 374.945 51.5407 374.692 51.4171 374.453H51.3212V379.682H49.0073ZM51.2765 371.091C51.2765 371.726 51.3659 372.282 51.5449 372.759C51.7282 373.237 51.9902 373.609 52.3311 373.878C52.6763 374.142 53.0939 374.274 53.584 374.274C54.0953 374.274 54.5236 374.138 54.8688 373.865C55.214 373.588 55.4739 373.211 55.6486 372.734C55.8276 372.252 55.9171 371.705 55.9171 371.091C55.9171 370.482 55.8297 369.94 55.655 369.467C55.4803 368.994 55.2203 368.624 54.8752 368.355C54.53 368.087 54.0996 367.952 53.584 367.952C53.0897 367.952 52.6699 368.082 52.3248 368.342C51.9796 368.602 51.7175 368.967 51.5385 369.435C51.3638 369.904 51.2765 370.456 51.2765 371.091ZM64.54 376.192C63.5811 376.192 62.7502 375.981 62.0471 375.559C61.3439 375.137 60.7985 374.547 60.4107 373.788C60.0272 373.03 59.8354 372.143 59.8354 371.129C59.8354 370.115 60.0272 369.227 60.4107 368.464C60.7985 367.701 61.3439 367.109 62.0471 366.687C62.7502 366.265 63.5811 366.054 64.54 366.054C65.4988 366.054 66.3297 366.265 67.0328 366.687C67.736 367.109 68.2793 367.701 68.6628 368.464C69.0506 369.227 69.2445 370.115 69.2445 371.129C69.2445 372.143 69.0506 373.03 68.6628 373.788C68.2793 374.547 67.736 375.137 67.0328 375.559C66.3297 375.981 65.4988 376.192 64.54 376.192ZM64.5527 374.338C65.0726 374.338 65.5073 374.195 65.8567 373.91C66.2061 373.62 66.4661 373.232 66.6365 372.746C66.8113 372.261 66.8986 371.719 66.8986 371.123C66.8986 370.522 66.8113 369.979 66.6365 369.493C66.4661 369.003 66.2061 368.613 65.8567 368.323C65.5073 368.033 65.0726 367.888 64.5527 367.888C64.0201 367.888 63.5769 368.033 63.2232 368.323C62.8738 368.613 62.6117 369.003 62.437 369.493C62.2665 369.979 62.1813 370.522 62.1813 371.123C62.1813 371.719 62.2665 372.261 62.437 372.746C62.6117 373.232 62.8738 373.62 63.2232 373.91C63.5769 374.195 64.0201 374.338 64.5527 374.338ZM75.555 376.192C74.5707 376.192 73.7205 375.987 73.0046 375.578C72.293 375.165 71.7454 374.581 71.3619 373.827C70.9783 373.068 70.7866 372.175 70.7866 371.148C70.7866 370.138 70.9783 369.252 71.3619 368.489C71.7496 367.722 72.2908 367.126 72.9854 366.7C73.68 366.269 74.4961 366.054 75.4336 366.054C76.0387 366.054 76.6097 366.152 77.1467 366.348C77.6879 366.54 78.1651 366.838 78.5785 367.243C78.9961 367.648 79.3242 368.163 79.5629 368.79C79.8015 369.412 79.9208 370.153 79.9208 371.014V371.724H71.8732V370.164H77.7028C77.6985 369.721 77.6026 369.327 77.4151 368.982C77.2276 368.632 76.9656 368.357 76.6289 368.157C76.2965 367.957 75.9087 367.857 75.4656 367.857C74.9925 367.857 74.5771 367.972 74.2191 368.202C73.8612 368.428 73.582 368.726 73.3817 369.097C73.1857 369.463 73.0856 369.866 73.0813 370.305V371.666C73.0813 372.237 73.1857 372.727 73.3945 373.136C73.6033 373.541 73.8952 373.852 74.2702 374.07C74.6452 374.283 75.0842 374.389 75.587 374.389C75.9237 374.389 76.2283 374.342 76.5011 374.249C76.7738 374.151 77.0103 374.008 77.2106 373.82C77.4109 373.633 77.5621 373.401 77.6644 373.124L79.8249 373.366C79.6886 373.937 79.4286 374.436 79.0451 374.862C78.6658 375.284 78.18 375.612 77.5877 375.847C76.9954 376.077 76.3178 376.192 75.555 376.192ZM81.8784 376V366.182H84.1923V370.145H85.036L87.9892 366.182H90.7761L87.139 371.001L90.8145 376H88.0147L85.3237 372.299H84.1923V376H81.8784ZM91.5895 368.08V366.182H100.18V368.08H97.0036V376H94.7663V368.08H91.5895ZM104.444 376.198C103.822 376.198 103.261 376.087 102.763 375.866C102.268 375.64 101.876 375.308 101.587 374.869C101.301 374.43 101.158 373.888 101.158 373.245C101.158 372.691 101.261 372.233 101.465 371.871C101.67 371.509 101.949 371.219 102.303 371.001C102.656 370.784 103.055 370.62 103.498 370.509C103.945 370.394 104.408 370.311 104.885 370.26C105.46 370.2 105.927 370.147 106.285 370.1C106.643 370.049 106.903 369.972 107.065 369.87C107.231 369.763 107.314 369.599 107.314 369.378V369.339C107.314 368.858 107.171 368.485 106.886 368.221C106.6 367.957 106.189 367.825 105.652 367.825C105.085 367.825 104.636 367.948 104.303 368.195C103.975 368.442 103.754 368.734 103.638 369.071L101.478 368.764C101.648 368.168 101.93 367.669 102.322 367.268C102.714 366.864 103.193 366.561 103.76 366.361C104.327 366.156 104.953 366.054 105.639 366.054C106.112 366.054 106.583 366.109 107.052 366.22C107.521 366.331 107.949 366.514 108.337 366.77C108.724 367.021 109.036 367.364 109.27 367.799C109.509 368.234 109.628 368.777 109.628 369.429V376H107.403V374.651H107.327C107.186 374.924 106.988 375.18 106.732 375.418C106.481 375.653 106.163 375.842 105.78 375.987C105.401 376.128 104.955 376.198 104.444 376.198ZM105.045 374.498C105.509 374.498 105.912 374.406 106.253 374.223C106.594 374.036 106.856 373.788 107.039 373.482C107.227 373.175 107.32 372.84 107.32 372.478V371.321C107.248 371.381 107.124 371.436 106.95 371.487C106.779 371.538 106.587 371.583 106.374 371.621C106.161 371.66 105.95 371.694 105.741 371.724C105.533 371.754 105.352 371.779 105.198 371.8C104.853 371.847 104.544 371.924 104.271 372.031C103.999 372.137 103.783 372.286 103.626 372.478C103.468 372.665 103.389 372.908 103.389 373.207C103.389 373.633 103.545 373.955 103.856 374.172C104.167 374.389 104.563 374.498 105.045 374.498Z" fill="white"/>
<circle cx="322" cy="183" r="3" fill="#3BA3F0"/>
<circle cx="210" cy="183" r="3" fill="#3BA3F0"/>
<circle cx="210" cy="495" r="3" fill="#3BA3F0"/>
<circle cx="210" cy="679" r="3" fill="#3BA3F0"/>
<circle cx="322" cy="495" r="3" fill="#3BA3F0"/>
<circle cx="322" cy="679" r="3" fill="#3BA3F0"/>
</svg>
