<svg width="590" height="739" viewBox="0 0 590 739" fill="none" xmlns="http://www.w3.org/2000/svg">
<path d="M7 355H35.177C39.5953 355 43.177 351.418 43.177 347V191C43.177 186.582 46.7587 183 51.177 183H80" stroke="#3BA3F0" stroke-linecap="round" stroke-linejoin="round"/>
<path d="M1 399H32.1504C36.5687 399 40.1504 402.582 40.1504 407V671C40.1504 675.418 43.7322 679 48.1504 679H80" stroke="#3BA3F0" stroke-linecap="round" stroke-linejoin="round"/>
<path d="M8 376H52.0354C56.4537 376 60.0354 379.582 60.0354 384V487C60.0354 491.418 63.6171 495 68.0354 495H83" stroke="#3BA3F0" stroke-linecap="round" stroke-linejoin="round"/>
<path d="M198.333 183C198.333 184.473 199.527 185.667 201 185.667C202.473 185.667 203.667 184.473 203.667 183C203.667 181.527 202.473 180.333 201 180.333C199.527 180.333 198.333 181.527 198.333 183ZM80.3333 183C80.3333 184.473 81.5272 185.667 83 185.667C84.4728 185.667 85.6667 184.473 85.6667 183C85.6667 181.527 84.4728 180.333 83 180.333C81.5272 180.333 80.3333 181.527 80.3333 183ZM200.5 183C200.5 215.309 174.309 241.5 142 241.5V242.5C174.861 242.5 201.5 215.861 201.5 183H200.5ZM142 241.5C109.691 241.5 83.5 215.309 83.5 183H82.5C82.5 215.861 109.139 242.5 142 242.5V241.5Z" fill="#3BA3F0"/>
<path d="M197.333 495C197.333 496.473 198.527 497.667 200 497.667C201.473 497.667 202.667 496.473 202.667 495C202.667 493.527 201.473 492.333 200 492.333C198.527 492.333 197.333 493.527 197.333 495ZM79.3333 495C79.3333 496.473 80.5272 497.667 82 497.667C83.4728 497.667 84.6667 496.473 84.6667 495C84.6667 493.527 83.4728 492.333 82 492.333C80.5272 492.333 79.3333 493.527 79.3333 495ZM199.5 495C199.5 527.309 173.309 553.5 141 553.5V554.5C173.861 554.5 200.5 527.861 200.5 495H199.5ZM141 553.5C108.691 553.5 82.5 527.309 82.5 495H81.5C81.5 527.861 108.139 554.5 141 554.5V553.5Z" fill="#3BA3F0"/>
<path d="M203 182.741C207.223 182.741 217.254 173.199 217.254 120.714V9.40766C217.254 4.99869 220.8 1.42102 225.209 1.40865C275.397 1.26779 547.375 0.550819 589 1.43159" stroke="#3BA3F0" stroke-linejoin="round"/>
<path d="M203 182.741C207.223 182.741 217.254 192.468 217.254 245.969V359.584C217.254 363.993 220.8 367.571 225.209 367.583C275.395 367.727 547.375 368.458 589 367.56" stroke="#3BA3F0" stroke-linejoin="round"/>
<path d="M202 495C206.234 495 216.291 489.119 216.291 456.775V391.251C216.291 386.839 219.841 383.259 224.253 383.252C274.536 383.165 547.264 382.723 589 383.266" stroke="#3BA3F0" stroke-linejoin="round"/>
<path d="M202 495C206.234 495 216.291 500.881 216.291 533.225V598.749C216.291 603.161 219.841 606.74 224.253 606.748C274.536 606.835 547.264 607.277 589 606.734" stroke="#3BA3F0" stroke-linejoin="round"/>
<path d="M202 679C206.234 679 216.291 676.007 216.291 659.546V630.128C216.291 625.712 219.846 622.132 224.262 622.128C274.567 622.084 547.266 621.859 589 622.135" stroke="#3BA3F0" stroke-linejoin="round"/>
<path d="M202 679C206.234 679 216.291 681.993 216.291 698.454V727.872C216.291 732.287 219.846 735.868 224.262 735.872C274.567 735.916 547.266 736.141 589 735.865" stroke="#3BA3F0" stroke-linejoin="round"/>
<path d="M197.333 679C197.333 680.473 198.527 681.667 200 681.667C201.473 681.667 202.667 680.473 202.667 679C202.667 677.527 201.473 676.333 200 676.333C198.527 676.333 197.333 677.527 197.333 679ZM79.3333 679C79.3333 680.473 80.5272 681.667 82 681.667C83.4728 681.667 84.6667 680.473 84.6667 679C84.6667 677.527 83.4728 676.333 82 676.333C80.5272 676.333 79.3333 677.527 79.3333 679ZM199.5 679C199.5 711.309 173.309 737.5 141 737.5V738.5C173.861 738.5 200.5 711.861 200.5 679H199.5ZM141 737.5C108.691 737.5 82.5 711.309 82.5 679H81.5C81.5 711.861 108.139 738.5 141 738.5V737.5Z" fill="#3BA3F0"/>
</svg>
